PathFileType	4	(X/Y/Z)	C:/Users/beibeiliu/ov580/test_trc/User2\sequence.5_training_dense_right.trc
DataRate	CameraRate	NumFrames	NumMarkers	Units	OrigDataRate	OrigDataStartFrame	OrigNumFrames
120	120	14	19	mm	120	157	417
Frame#	Time	ThumbCMC			ThumbMCP			ThumbIP			ThumbTip			IndexMCP			IndexPIP			IndexTip			MiddleMCP			MiddlePIP			MiddleTip			RingMCP			RingPIP			RingTip			PinkyMCP			PinkyPIP			PinkyTip			BackHand1			BackHand2			BackHand3	
		X0	Y0	Z0	X1	Y1	Z1	X2	Y2	Z2	X3	Y3	Z3	X4	Y4	Z4	X5	Y5	Z5	X6	Y6	Z6	X7	Y7	Z7	X8	Y8	Z8	X9	Y9	Z9	X10	Y10	Z10	X11	Y11	Z11	X12	Y12	Z12	X13	Y13	Z13	X14	Y14	Z14	X15	Y15	Z15	X16	Y16	Z16	X17	Y17	Z17	X18	Y18	Z18	
156	1.3	61.1333	15.0655	90.0792	47.289	-9.41882	68.4531	44.9812	-30.3054	37.8474	54.28	-44.1098	16.533	72.3557	32.498	8.37988	70.2017	29.4554	-21.0553	68.5966	24.3276	-44.4429	94.1898	4.90854	1.31298	81.3861	-26.3458	-6.9173	74.5831	-48.3095	31.0989	106.446	-16.8325	10.6257	92.1394	-44.5617	21.1657	81.6223	-43.3672	54.6232	124.991	-24.9769	28.5069	101.711	-44.3187	41.5011	93.3633	-29.8979	72.4148	125.773	26.2311	56.2627	128.627	32.3808	93.4662	95.493	43.1932	77.2496	
157	1.30833	63.241	15.8263	90.4808	51.2682	-7.93005	60.1363	49.6084	-28.5443	30.6995	63.5675	-41.5884	12.1418	81.9678	32.1078	10.1184	78.0055	29.6398	-20.6268	79.5521	20.8844	-49.5181	98.7576	5.95664	-1.13342	90.3535	-29.7737	-5.33042	80.0725	-48.2459	28.6853	117.207	-15.6646	13.2325	100.582	-42.4712	17.5679	89.4293	-45.7471	53.0577	131.251	-24.0009	28.105	107.565	-44.0188	40.0445	98.3599	-33.1261	68.3157	131.396	28.9297	61.9454	131.942	36.445	95.0718	95.6615	43.7144	77.1319	
158	1.31667	68.3956	16.4634	83.309	53.6947	-7.26394	62.1391	55.429	-28.6594	31.2729	67.2816	-43.3657	9.13806	90.657	29.2923	4.92748	87.1567	22.3485	-20.7045	92.1159	7.36087	-48.1001	108.798	6.43029	1.18259	98.1246	-28.7047	-7.52779	86.7734	-49.0507	26.4466	121.717	-14.8937	12.6833	106.494	-41.6416	17.8316	89.801	-42.0167	53.8421	137.612	-24.4518	28.5217	111.574	-44.3015	41.3199	104.918	-34.8054	69.9778	136.373	28.2377	56.9086	134.511	34.6646	92.4178	99.7567	43.9872	74.7016	
159	1.325	71.0687	17.4521	86.5776	62.5315	-7.2061	60.762	60.0484	-28.3376	34.5891	73.6518	-44.5654	10.5129	94.0464	21.6486	3.10664	94.5645	9.23871	-18.8195	93.9158	-10.0451	-44.59	113.704	5.06433	2.84246	103.373	-35.3394	-3.99074	91.4002	-50.8606	25.4284	125.293	-15.5665	14.7165	110.468	-45.6706	20.7108	97.7846	-45.5066	53.4475	140.536	-22.8255	30.736	118.573	-48.3035	43.5121	106.611	-32.3388	68.4289	142.488	26.2003	62.0281	143.152	32.6266	92.7066	109.813	42.8173	72.5531	
160	1.33333	79.2289	15.4775	82.3501	61.3181	-9.84807	61.1656	59.7967	-32.1856	32.8642	75.4806	-48.3369	11.0311	96.3911	16.4957	3.07513	97.0334	-0.316907	-18.1975	97.4711	-23.2376	-42.2579	115.164	0.194097	-0.588113	104.257	-35.789	-4.79718	95.3052	-53.0815	25.5189	128.994	-21.0113	12.6975	113.777	-46.5434	21.2458	101.184	-44.3948	56.3127	145.279	-27.9764	30.8788	123.354	-47.4436	41.4767	112.979	-36.3272	69.03	144.309	26.9644	61.8655	146.905	33.4486	91.0444	109.099	42.6218	74.001	
161	1.34167	80.2972	15.4619	85.5621	66.2814	-11.3526	60.0259	66.9923	-34.244	30.239	77.831	-49.5668	15.293	99.7255	16.7865	3.62123	100.349	-1.30946	-19.5007	98.0293	-23.7726	-42.5988	118.368	-0.234349	-0.773986	114.194	-34.5237	-5.35425	96.2377	-53.8935	24.2926	134.528	-20.8842	14.5967	119.31	-48.5151	22.4035	106.02	-47.4445	53.198	147.877	-28.4885	31.0967	129.298	-50.6992	44.7385	117.427	-36.7982	71.5377	145.657	26.7495	57.9682	148.216	35.6882	95.3492	113.121	43.6555	74.5353	
162	1.35	84.2105	15.1848	82.8624	68.576	-11.0568	59.6155	70.4864	-32.8842	32.7089	83.1974	-49.351	15.2206	104.057	19.8223	5.41582	103.579	6.80519	-21.0927	97.9572	-7.80934	-44.0195	124.422	-0.792069	-0.154569	114.016	-34.4523	-6.73951	98.7995	-53.624	28.0886	136.286	-20.9117	13.6074	121.991	-47.5966	20.0442	108.019	-43.8625	55.8273	155.964	-28.5523	32.181	130.426	-49.7214	44.1361	119.832	-32.9432	70.9926	153.461	23.7275	57.6677	154.168	33.9391	93.8131	115.139	40.7619	71.2778	
163	1.35833	85.4869	15.0343	85.0021	74.9004	-10.5356	56.9036	77.108	-33.0542	29.7734	88.0844	-48.9558	12.3198	105.327	25.112	0.264438	106.588	16.774	-23.4931	106.917	5.03235	-52.5455	127.571	3.01054	-0.00572631	121.599	-34.1034	-6.94293	104.228	-51.5972	22.3721	143.2	-20.8988	13.0545	128.818	-48.9978	21.3059	114.586	-46.9078	52.9993	156.498	-28.9793	31.124	132.868	-48.2808	42.9556	120.822	-32.4338	71.4516	155.186	25.8278	59.8823	156.895	33.5531	92.3763	120.752	40.1872	76.1277	
164	1.36667	93.3681	15.5781	82.4026	78.998	-9.42594	56.7167	80.7102	-31.5789	26.3915	92.1303	-46.964	12.8475	118.021	29.2967	3.0975	114.483	24.9651	-27.2838	116.037	17.8503	-50.9125	134.065	2.31926	-1.82536	123.845	-31.8697	-8.23345	109.163	-50.901	24.6335	147.853	-20.5297	12.4465	132.719	-47.0369	20.4575	117.039	-44.1371	53.8987	162.381	-28.4897	30.7933	140.224	-51.1959	44.1218	124.998	-32.3483	71.8981	163.495	25.0758	60.3441	162.526	31.6422	97.388	126.973	40.4525	75.9674	
165	1.375	98.3292	17.613	82.1072	84.055	-8.74427	54.5453	85.0719	-31.6941	22.6155	100.96	-46.717	8.74739	123.901	30.9864	3.39577	127.392	26.7634	-28.0132	129.09	19.5734	-51.9216	146.557	2.27489	1.63575	132.854	-34.3227	-6.62865	116.389	-50.6756	24.6362	156.599	-21.1546	13.9205	137.265	-44.315	17.7025	123.153	-44.0298	53.4596	162.725	-29.3275	29.9482	142.535	-47.807	41.4931	129.951	-33.8055	71.9362	166.621	26.0202	63.4614	167.333	30.1617	94.8467	132.848	41.0655	73.7208	
166	1.38333	102.637	16.4981	76.1587	90.8974	-8.93289	52.126	89.1003	-31.4645	26.7815	104.686	-46.6266	10.6356	135.788	26.4483	2.634	139.483	19.0323	-27.2616	141.429	9.31393	-51.9458	149.317	1.0041	-1.66207	136.476	-33.513	-7.75895	117.332	-49.1627	25.1074	161.537	-20.3016	14.9328	144.697	-48.4473	22.7838	127.219	-44.3448	53.0198	170.978	-25.6902	33.2941	148.789	-49.6683	44.9902	134.285	-32.7432	67.4046	169.754	23.9947	60.2861	169.457	30.0989	93.9934	137.15	42.7323	72.5522	
167	1.39167	102.896	16.7711	77.1875	93.8325	-9.05682	53.142	96.8411	-33.7643	21.6116	110.691	-49.9256	11.091	137.904	22.1844	-0.977385	143.243	9.73308	-24.1965	150.357	-10.9696	-48.9913	154.23	-0.210821	-0.451748	145.262	-35.0333	-6.1374	125.3	-52.7178	27.8999	166.965	-22.282	17.1326	146.824	-49.8589	24.378	132.43	-45.5039	55.7434	177.425	-30.111	35.7499	152.674	-48.6053	45.6936	140.147	-33.2862	71.5027	175.13	22.7887	60.8107	173.781	32.1214	96.2646	142.742	42.4882	71.2338	
168	1.4	104.276	16.0149	78.4955	99.4836	-10.9109	52.8646	102.279	-33.8896	27.8157	116.415	-50.3507	12.2067	140.587	15.1963	1.59908	148.394	-5.62664	-22.8119	151.112	-25.4094	-40.8905	158.914	-1.55142	1.93252	150.009	-37.3634	-5.1462	132.475	-54.5551	27.2641	172.356	-25.1477	19.2948	152.191	-53.4038	29.4782	133.268	-44.069	58.9288	180.882	-34.8955	36.9171	154.712	-48.3817	49.3335	142.126	-34.6926	74.4328	179.064	24.6296	62.4467	174.109	34.1213	92.4954	144.7	40.8321	73.2148	
169	1.40833	108.877	16.7456	77.7164	98.9658	-10.7779	51.9756	103.525	-34.4534	27.8576	117.65	-54.353	8.87582	148.328	9.44176	-1.01342	148.853	-6.48995	-20.1742	150.981	-28.0971	-38.0137	162.77	-2.26781	2.053	151.299	-40.7701	-3.3925	133.241	-55.6864	28.361	173.653	-23.907	20.1731	154.786	-51.9335	29.8126	136.046	-42.99	60.0585	183.66	-34.2247	37.9643	161.71	-50.3149	50.1943	143.404	-30.2708	74.6571	183.396	25.0434	61.1214	173.248	34.5201	97.3931	146.164	40.6597	73.0539	
